<?xml version="1.0" encoding="UTF-8" standalone="no"?>
<!-- Created with Inkscape (http://www.inkscape.org/) -->

<svg
   version="1.1"
   id="svg2"
   xml:space="preserve"
   width="380"
   height="464"
   viewBox="0 0 380 464"
   sodipodi:docname="hns.eps"
   xmlns:inkscape="http://www.inkscape.org/namespaces/inkscape"
   xmlns:sodipodi="http://sodipodi.sourceforge.net/DTD/sodipodi-0.dtd"
   xmlns="http://www.w3.org/2000/svg"
   xmlns:svg="http://www.w3.org/2000/svg"><defs
     id="defs6" /><sodipodi:namedview
     id="namedview4"
     pagecolor="#ffffff"
     bordercolor="#666666"
     borderopacity="1.0"
     inkscape:pageshadow="2"
     inkscape:pageopacity="0.0"
     inkscape:pagecheckerboard="0" /><g
     id="g8"
     inkscape:groupmode="layer"
     inkscape:label="ink_ext_XXXXXX"
     transform="matrix(1.3333333,0,0,-1.3333333,0,464)"><g
       id="g10"
       transform="scale(0.1)"><path
         d="M 909.867,3472.33 C 906.66,3423 888.902,3376.13 871.387,3330.5 844.254,3270.81 807.254,3216.05 763.348,3167.46 676.77,3072 562.813,3004.91 442.441,2961 396.316,2944.97 348.957,2931.4 301.352,2920.05 204.906,2900.82 107.473,2884.29 9.05469,2882.81 63.8164,2602.6 134.113,2325.11 222.914,2053.53 c 93.727,-289.83 203,-575.71 340.391,-847.78 62.406,-121.11 130.73,-239.016 205.222,-352.977 66.848,-107.05 166.098,-228.355 250.453,-322.085 60.66,100.765 164.49,201.292 261.15,232.636 -59.95,331.516 -110.04,699.196 -148.27,1034.166 -45.63,406.75 -83.37,814.48 -117.65,1222.22 -9.87,125.55 -21.71,250.85 -29.355,376.4 294.515,0 589.025,0 883.545,0 -35.52,-460.27 -75.23,-920.3 -123.83,-1379.58 -36.5,-341.63 -77.45,-682.76 -130.73,-1022.171 -10.11,-66.105 -29.02,-168.343 -40.61,-234.203 114.09,-52.367 184,-115.922 251.3,-226.304 44.9,49.828 117.62,120.605 158.57,173.64 34.04,45.383 64.87,92.988 96.44,139.86 99.16,148.242 186.23,304.128 260.72,465.938 109.28,224.22 196.35,458.55 274.04,695.35 43.91,135.91 86.09,272.56 123.09,410.69 40.7,153.18 75.97,308.08 106.31,463.48 -95.46,6.41 -191.16,14.3 -284.9,34.53 -75.47,18.99 -150.21,41.44 -221.5,72.77 -116.42,53.03 -221.01,133.93 -297.47,236.8 -13.57,18 -23.68,38.23 -35.52,57.22 -18.01,31.33 -31.33,65.37 -43.42,99.65 -10.85,28.36 -12.57,58.71 -18.74,88.31 -344.1,0.24 -688.19,-0.25 -1032.283,0.24"
         style="fill:#c7a36f;fill-opacity:1;fill-rule:evenodd;stroke:none"
         id="path12" /><path
         d="m 1257.98,756.992 c -63.67,334.968 -103.73,712.468 -144.34,1050.918 -48.47,410.99 -88.56,822.97 -124.984,1234.95 -10.476,126.85 -23.054,253.46 -31.176,380.32 312.84,0 625.69,0 938.54,0 -37.73,-465.07 -79.92,-929.88 -131.54,-1393.95 -38.77,-345.18 -82.27,-689.87 -138.86,-1032.812 -10.74,-66.793 -28.85,-172.879 -41.17,-239.426 -113.29,41.11 -221.59,36.278 -326.47,0"
         style="fill:#1c73c3;fill-opacity:1;fill-rule:evenodd;stroke:none"
         id="path14" /><path
         d="m 1196.54,770.68 c -38.33,-26.309 -72.43,-54.731 -102.31,-85.262 L 962.07,979.57 1166.7,958.258 1196.54,770.68"
         style="fill:#ffffff;fill-opacity:1;fill-rule:evenodd;stroke:none"
         id="path16" /><path
         d="m 812.859,1448.52 298.421,-29.84 51.16,-409.27 -213.163,21.32 -136.418,417.79"
         style="fill:#ed1c24;fill-opacity:1;fill-rule:evenodd;stroke:none"
         id="path18" /><path
         d="m 697.754,1917.46 349.576,-42.63 42.63,-400.74 -285.628,29.85 -106.578,413.52"
         style="fill:#ffffff;fill-opacity:1;fill-rule:evenodd;stroke:none"
         id="path20" /><path
         d="m 301.285,1972.88 336.024,-45.37 111.601,-406.52 -281.363,29.84 -166.262,422.05"
         style="fill:#ed1c24;fill-opacity:1;fill-rule:evenodd;stroke:none"
         id="path22" /><path
         d="m 493.125,1495.41 260.051,-38.37 144.945,-413.52 -200.367,29.84 -204.629,422.05"
         style="fill:#ffffff;fill-opacity:1;fill-rule:evenodd;stroke:none"
         id="path24" /><path
         d="M 723.332,1017.94 915.176,983.836 1066.45,660.938 C 1047.38,638.5 1030.82,616.055 1015.96,593.609 908.68,700.324 819.246,839.164 723.332,1017.94"
         style="fill:#ed1c24;fill-opacity:1;fill-rule:evenodd;stroke:none"
         id="path26" /><path
         d="m 599.703,2403.46 400.737,-34.11 42.63,-439.1 -358.105,39.89 -85.262,433.32"
         style="fill:#ed1c24;fill-opacity:1;fill-rule:evenodd;stroke:none"
         id="path28" /><path
         d="m 510.18,2923.56 434.836,-34.11 46.894,-463.92 -413.523,37.61 -68.207,460.42"
         style="fill:#ffffff;fill-opacity:1;fill-rule:evenodd;stroke:none"
         id="path30" /><path
         d="m 578.387,2970.45 c 169.828,99.47 269.297,214.57 336.789,336.79 l 21.312,-366.63 -358.101,29.84"
         style="fill:#ed1c24;fill-opacity:1;fill-rule:evenodd;stroke:none"
         id="path32" /><path
         d="m 58.0586,2845.07 c 146.1524,7.93 270.6404,28.53 396.6994,69.96 l 85.262,-443.36 -405.989,51.15 -75.9724,322.25"
         style="fill:#ed1c24;fill-opacity:1;fill-rule:evenodd;stroke:none"
         id="path34" /><path
         d="m 147.813,2471.67 387.941,-55.42 85.266,-439.11 -336.79,46.9 -136.417,447.63"
         style="fill:#ffffff;fill-opacity:1;fill-rule:evenodd;stroke:none"
         id="path36" /><path
         d="m 1639.63,770.68 c 35.89,-24.856 73.81,-48.793 105.48,-82.098 L 1874.1,979.57 1669.47,958.258 1639.63,770.68"
         style="fill:#ffffff;fill-opacity:1;fill-rule:evenodd;stroke:none"
         id="path38" /><path
         d="m 2023.31,1448.52 -298.42,-29.84 -51.16,-409.27 213.16,21.32 136.42,417.79"
         style="fill:#ed1c24;fill-opacity:1;fill-rule:evenodd;stroke:none"
         id="path40" /><path
         d="m 2138.41,1917.46 -349.57,-42.63 -42.63,-400.74 285.63,29.85 106.57,413.52"
         style="fill:#ffffff;fill-opacity:1;fill-rule:evenodd;stroke:none"
         id="path42" /><path
         d="m 2534.89,1972.88 -336.03,-45.37 -111.6,-406.52 281.36,29.84 166.27,422.05"
         style="fill:#ed1c24;fill-opacity:1;fill-rule:evenodd;stroke:none"
         id="path44" /><path
         d="m 2343.05,1495.41 -260.05,-38.37 -144.95,-413.52 200.36,29.84 204.64,422.05"
         style="fill:#ffffff;fill-opacity:1;fill-rule:evenodd;stroke:none"
         id="path46" /><path
         d="M 2112.84,1017.94 1921,983.836 1776.05,664.102 c 19.47,-19.805 36.82,-41.723 52.06,-65.747 107.29,106.719 188.81,240.809 284.73,419.585"
         style="fill:#ed1c24;fill-opacity:1;fill-rule:evenodd;stroke:none"
         id="path48" /><path
         d="m 2236.46,2403.46 -400.73,-34.11 -42.63,-439.1 358.11,39.89 85.25,433.32"
         style="fill:#ed1c24;fill-opacity:1;fill-rule:evenodd;stroke:none"
         id="path50" /><path
         d="m 2325.99,2923.56 -434.83,-34.11 -46.9,-463.92 413.52,37.61 68.21,460.42"
         style="fill:#ffffff;fill-opacity:1;fill-rule:evenodd;stroke:none"
         id="path52" /><path
         d="m 2257.78,2970.45 c -169.82,99.47 -269.29,214.57 -336.78,336.79 l -21.32,-366.63 358.1,29.84"
         style="fill:#ed1c24;fill-opacity:1;fill-rule:evenodd;stroke:none"
         id="path54" /><path
         d="m 2778.11,2845.07 c -146.15,7.93 -270.64,28.53 -396.7,69.96 l -85.26,-443.36 405.99,51.15 75.97,322.25"
         style="fill:#ed1c24;fill-opacity:1;fill-rule:evenodd;stroke:none"
         id="path56" /><path
         d="m 2688.36,2471.67 -387.95,-55.42 -85.26,-439.11 336.79,46.9 136.42,447.63"
         style="fill:#ffffff;fill-opacity:1;fill-rule:evenodd;stroke:none"
         id="path58" /><path
         d="m 1247.05,3181.76 v -548.08 h 122.59 l -0.24,212.13 112.73,0.24 -0.25,-212.37 122.59,0.25 v 547.83 h -122.34 v -186.72 l -112.73,0.25 0.24,186.47 h -122.59"
         style="fill:#c7a36f;fill-opacity:1;fill-rule:evenodd;stroke:none"
         id="path60" /><path
         d="M 1247.05,2422.79 V 1874.7 h 116.18 l -2.71,325.6 125.8,-325.6 h 118.15 l 0.24,548.09 h -116.42 l 0.99,-324.61 -126.79,324.36 -115.44,0.25"
         style="fill:#c7a36f;fill-opacity:1;fill-rule:evenodd;stroke:none"
         id="path62" /><path
         d="m 1305.27,1632.23 c -29.85,-34.78 -43.91,-81.15 -43.17,-126.54 -1.23,-47.6 11.1,-99.4 47.86,-131.96 30.58,-27.88 72.02,-35.77 108.53,-52.29 18,-8.64 39.21,-14.31 51.3,-31.33 10.85,-12.83 8.88,-34.04 -2.96,-45.39 -18.01,-16.28 -47.85,-19.48 -67.83,-4.93 -15.29,11.35 -20.96,30.09 -24.42,47.85 -39.96,0 -79.67,0 -119.63,0 0.25,-37 10.85,-73.26 27.87,-105.82 15.05,-31.32 41.93,-56.73 74.49,-69.31 44.4,-16.28 94.48,-14.8 139.12,-0.49 48.59,16.03 82.39,61.66 92.5,110.5 9.87,47.12 12.09,97.93 -5.68,143.31 -14.3,36.76 -45.38,65.62 -81.89,79.67 -28.86,10.61 -57.72,20.97 -85.59,34.05 -10.6,5.67 -22.94,10.85 -29.11,21.95 -11.09,16.77 -4.19,43.66 15.79,50.32 18.75,5.92 42.18,2.71 55.01,-13.57 8.88,-8.39 8.63,-21.21 10.85,-32.56 39.46,0.25 78.69,0 118.15,0.25 -0.74,39.96 -15.05,78.44 -34.78,112.97 -8.88,14.55 -23.18,24.91 -37.24,34.53 -35.28,22.94 -79.18,28.37 -120.37,23.68 -33.55,-4.19 -66.85,-18.74 -88.8,-44.89"
         style="fill:#c7a36f;fill-opacity:1;fill-rule:evenodd;stroke:none"
         id="path64" /><path
         d="m 1602.38,103.234 c 7.28,-16.6754 14.16,-33.3434 21.24,-50.1988 -122.22,-64.211 -267.55,-70.7383 -391.29,-6.3008 125.91,3.5859 250.34,5.4336 370.05,56.4996 z m -83.11,144.938 c 32.83,-39.785 52.53,-82.16 68.63,-128.059 -110.5,-32.195 -217.93,-54.9567 -334.29,-54.2185 -17.57,0.3711 -35.35,-0.3711 -52.52,2.7735 -9.9,1.4804 -15.96,9.4414 -23.43,14.4375 -45.05,32.5665 -88.06,72.7225 -112.3,121.0275 151.41,-18.766 311.81,-18.32 453.91,44.039 z m -499.04,111.613 c 0.2,-44.117 13.53,-88.254 31.62,-128.648 62.19,-8.379 137.22,-10.785 200.22,-9.668 83.93,0.558 168.27,15.082 245.29,46.539 -23.25,34.672 -50.51,67.344 -81.78,98.012 -136.71,-37.52 -265.78,-32.918 -395.35,-6.235 z m 416.89,19.223 c 3.99,43.844 25.8,89.07 47.38,127.137 120.1,-68.93 212.84,-203.747 266.34,-328.793 C 1721.69,138.383 1686.88,97.6641 1643.75,71.6875 1607.16,167.734 1514.59,315.234 1437.12,379.008 Z M 1584.5,643.02 c 51,-45.243 188.71,-168.45 240.33,-290.192 -8.07,-55.336 -21.4,-106.808 -59.67,-150.328 -59.34,129.582 -141.77,252.984 -266.57,328.172 22.23,46.605 49.29,77.449 85.91,112.348 z m -495.93,-49.602 c -8.44,-10.309 -13.42,-22.398 -21,-33.301 -32.02,-48.961 -48.03,-105.656 -51.93,-162.344 12.99,-1.785 25.75,-3.367 38.52,-5.156 6.7,34.098 15.36,67.793 26.4,100.899 19.26,58.472 49.33,113.379 77.46,168.683 -24.88,-21.406 -49.55,-43.41 -69.45,-68.781 z m 511.76,70.965 c 89.33,-69.184 166.64,-153.254 223.31,-247.383 -2.03,100.352 -94.79,236.316 -193.88,279.691 -9.96,-10.703 -19.69,-21.605 -29.43,-32.308 z m -144.55,86.222 c -40.46,-50.546 -79.85,-102.281 -110.57,-158.574 -27.92,-46.386 -47.39,-96.734 -60.6,-148.269 -5.62,-23.59 -12.33,-47.18 -12.76,-71.559 45.22,0 89.8,10.305 131.35,26.563 4.11,1.187 4.32,5.547 5.62,8.718 8.44,27.95 17.97,55.899 29.86,82.856 35.93,83.848 97.82,155.211 161.65,222.605 -45.88,18.633 -93.92,35.481 -144.55,37.66 z m -224.18,-43.41 c -12.55,-14.468 -22.08,-31.515 -32.03,-47.769 -53.23,-85.832 -84.17,-181.18 -108.62,-276.719 28.78,-6.738 58.42,-11.297 88.07,-11.496 18.39,-0.594 36.78,1.785 55.18,2.379 4.54,60.258 25.1,118.336 47.82,174.633 33.32,72.746 78.98,140.144 129.83,203.574 -62.97,0 -125.29,-16.848 -180.25,-44.602"
         style="fill:#c7a36f;fill-opacity:1;fill-rule:evenodd;stroke:none"
         id="path66" /></g></g></svg>
